PathFileType	4	(X/Y/Z)	S01_0012_Gait_markers.trc
DataRate	CameraRate	NumFrames	NumMarkers	Units	OrigDataRate	OrigDataStartFrame	OrigNumFrames
250.000000	250.000000	4	54	mm	250.000000	120	321
Frame#	Time	HEAD_ANT			R_HEAD			L_HEAD			C7			R_BACK			L_BACK			STERNUM			R_ACROMION			R_HUM_PROX			R_HUM_ANT			R_HUM_POST			R_ELBOW_LAT			R_ELBOW_MED			R_FOREARM			R_WIRST_LAT			R_WRITS_MED			R_HAND			L_ACROMION			L_HUM_PROX			L_HUM_ANT			L_HUM_POST			L_ELBOW_LAT			L_ELBOW_MED			L_FOREARM			L_WRIST_LAT			L_WIRST_MED			L_HAND			R_ILIAC			SACRUM			L_ILIAC			R_GTROCH			R_THIGH__1			R_THIGH_2			R_THIGH_3			R_THIGH_4			R_SHANK_1			R_SHANK_2			R_SHANK_3			R_SHANK_4			R_HEEL			R_FOOT_LAT			R_FOOT_MED			L_GTROCH			L_THIGH_1			L_THIGH_2			L_THIGH_3			L_THIGH_4			L_SHANK_1			L_SHANK_2			L_SHANK_3			L_SHANK_4			L_HEEL			L_FOOT_LAT			L_FOOT_MED			
		X1	Y1	Z1	X2	Y2	Z2	X3	Y3	Z3	X4	Y4	Z4	X5	Y5	Z5	X6	Y6	Z6	X7	Y7	Z7	X8	Y8	Z8	X9	Y9	Z9	X10	Y10	Z10	X11	Y11	Z11	X12	Y12	Z12	X13	Y13	Z13	X14	Y14	Z14	X15	Y15	Z15	X16	Y16	Z16	X17	Y17	Z17	X18	Y18	Z18	X19	Y19	Z19	X20	Y20	Z20	X21	Y21	Z21	X22	Y22	Z22	X23	Y23	Z23	X24	Y24	Z24	X25	Y25	Z25	X26	Y26	Z26	X27	Y27	Z27	X28	Y28	Z28	X29	Y29	Z29	X30	Y30	Z30	X31	Y31	Z31	X32	Y32	Z32	X33	Y33	Z33	X34	Y34	Z34	X35	Y35	Z35	X36	Y36	Z36	X37	Y37	Z37	X38	Y38	Z38	X39	Y39	Z39	X40	Y40	Z40	X41	Y41	Z41	X42	Y42	Z42	X43	Y43	Z43	X44	Y44	Z44	X45	Y45	Z45	X46	Y46	Z46	X47	Y47	Z47	X48	Y48	Z48	X49	Y49	Z49	X50	Y50	Z50	X51	Y51	Z51	X52	Y52	Z52	X53	Y53	Z53	X54	Y54	Z54	

121	0.48	837.6686401367188	1746.482543945312	-304.1566162109371	780.2847290039062	1693.099365234375	-226.9769897460934	778.2129516601562	1700.02197265625	-374.7163085937496	642.28857421875	1527.48779296875	-304.0606994628903	572.3095703125	1333.435424804688	-232.3111572265622	564.7713012695312	1337.075561523438	-376.1791687011716	817.80126953125	1363.891235351562	-314.0937805175778	725.6469116210938	1477.946533203125	-137.1968231201168	702.3186645507812	1319.660766601562	-42.2112045288083	768.64111328125	1237.106689453125	-46.46978759765597	649.4505004882812	1233.73046875	-20.57401084899875	704.8120727539062	1129.425415039062	-19.71561050415014	665.7909545898438	1123.062744140625	-94.51685333251928	838.6975708007812	970.6464233398438	-53.70277404785135	881.171142578125	919.1016235351562	-105.0434112548826	830.4330444335938	876.9547119140625	-57.62001037597637	918.107421875	832.1687622070312	-63.18748092651349	715.072021484375	1486.317016601562	-475.5142822265622	673.3681030273438	1323.8955078125	-573.7800903320309	728.2120361328125	1238.234252929688	-582.0367431640623	604.9727783203125	1252.182739257813	-594.9180908203123	655.5418701171875	1143.106811523438	-609.291564941406	608.0924682617188	1140.401611328125	-548.4339599609373	746.736083984375	960.8713378906251	-605.9498291015623	780.7796630859375	897.7145385742189	-558.6115112304685	727.3362426757812	879.2881469726564	-616.016418457031	800.9240112304688	817.1771850585939	-608.8263549804685	705.4173583984375	1079.12060546875	-141.9523315429685	575.2283935546875	1055.19970703125	-311.9863586425779	693.6089477539062	1075.512084960938	-485.2987670898435	645.1421508789062	938.4496459960938	-131.0103607177732	624.8300170898438	661.9288940429688	-154.6435546874999	683.4723510742188	666.41796875	-150.3238677978514	666.6803588867188	566.5911254882812	-188.0801849365233	606.2803955078125	585.9908447265625	-177.145553588867	538.9654541015625	359.6062011718751	-184.5423583984374	589.7696533203125	330.7141113281251	-200.3109283447265	572.2699584960938	249.2053680419922	-221.6869506835937	510.5366821289062	265.5217895507813	-211.3615722656249	438.201171875	71.47175598144538	-305.0545654296875	589.2920532226562	19.80671119689946	-211.4178466796875	654.4173583984375	29.30773353576667	-308.1720581054688	670.4970092773438	961.0831298828126	-495.6081848144529	858.399169921875	709.7846069335939	-489.5460510253905	802.4638061523438	709.3970947265626	-507.7969970703123	822.6612548828125	607.0766601562501	-482.2596130371093	882.1053466796875	631.7374267578126	-468.0964965820311	845.6275634765625	349.8956604003907	-470.7626342773437	786.0962524414062	336.718231201172	-472.6611938476562	772.2171630859375	251.6485595703126	-455.5874938964843	836.329345703125	249.323455810547	-447.9051513671874	713.0535888671875	66.6185836791993	-379.2452392578125	883.2811889648438	31.57092475891123	-452.0252990722656	921.8861083984375	46.9708786010743	-361.0804443359375	
122	0.484	843.5416870117188	1745.619262695312	-304.6098022460934	786.1453857421875	1692.310791015625	-227.426361083984	783.8785400390625	1699.291381835938	-375.3593444824215	648.0831298828125	1526.790649414062	-304.1940307617184	577.8932495117188	1332.809814453125	-232.3741149902341	570.3619995117188	1336.340454101562	-376.0989074707028	823.358154296875	1362.897583007812	-314.2573547363278	731.588134765625	1477.196411132812	-137.5573730468747	708.4683837890625	1319.090087890625	-42.42808914184541	775.0377807617188	1236.67431640625	-46.69738388061496	655.884033203125	1233.023193359375	-20.50954818725559	711.4000244140625	1128.831909179688	-19.85126113891576	672.0518798828125	1122.2021484375	-94.21028900146459	845.7368774414062	970.5370483398438	-54.07000732421854	888.3820190429688	919.1475830078125	-105.615036010742	838.0429077148438	876.8038940429688	-57.9686737060545	925.8571166992188	832.5526123046875	-63.73920059204083	720.7361450195312	1485.475830078125	-475.7446899414059	678.5428466796875	1323.017822265625	-574.0239257812497	733.0396728515625	1237.457641601563	-582.2419433593748	609.9756469726562	1251.517700195313	-594.855285644531	660.6248779296875	1142.246948242188	-609.4540405273435	613.0643310546875	1139.736572265625	-548.3705444335935	751.5737915039062	960.1494140625001	-606.321838378906	785.9481811523438	896.9813232421876	-558.9493408203123	732.228271484375	878.7091064453126	-617.3190917968748	805.9016723632812	816.3546752929689	-608.5364990234373	710.7684326171875	1078.396728515625	-142.0717926025388	580.6109619140625	1054.413940429688	-312.3326110839841	698.6886596679688	1074.810913085938	-485.675354003906	650.1296997070312	938.2290649414062	-131.3701324462889	627.91845703125	662.2409057617188	-154.7069244384764	686.6231689453125	666.2872314453125	-150.3714904785155	669.2788696289062	566.3103637695312	-188.0192413330077	608.8428344726562	586.14013671875	-177.1879730224608	540.0520629882812	360.0776977539063	-184.6378326416015	590.8739013671875	331.0000610351563	-200.1256713867187	573.0191040039062	249.5447540283204	-221.705825805664	511.3315734863281	266.0867919921876	-211.4967041015624	438.4476318359375	72.28160858154304	-305.4300842285156	589.3157958984375	20.00462341308598	-211.2294464111328	654.6460571289062	29.37658691406257	-307.90185546875	676.1858520507812	960.1729125976564	-495.8682861328123	864.2178344726562	709.3287963867189	-489.284454345703	807.9678955078125	708.9176025390626	-507.7841796874998	828.379638671875	606.6704711914064	-481.8675537109374	887.8463745117188	631.3955078125001	-467.7854614257811	855.9217529296875	349.5843200683595	-470.5064392089843	797.063720703125	334.6764221191407	-471.9035949707031	785.4950561523438	249.2988891601564	-454.8736572265624	849.5042114257812	248.7775115966798	-448.2648925781249	731.35400390625	63.0281295776368	-379.0335388183594	902.3671875	31.6124267578126	-452.0929565429688	940.5880126953125	47.51843261718758	-361.1052856445312	
123	0.488	849.3203125	1744.67236328125	-305.020599365234	792.0094604492188	1691.616821289062	-227.7224273681637	789.65185546875	1698.369140625	-375.7468872070309	653.8936767578125	1526.057983398438	-304.3295593261715	583.5337524414062	1332.139404296875	-232.4942932128903	575.9240112304688	1335.609985351562	-376.1771240234372	829.0204467773438	1361.948486328125	-315.1656188964841	737.455078125	1476.431274414062	-137.8116455078122	714.7607421875	1318.385986328125	-42.66040802001924	781.4133911132812	1236.098388671875	-47.03566360473605	662.2257080078125	1232.270874023438	-20.51376914978	717.986328125	1128.203491210938	-19.79282951354955	678.6129760742188	1121.40771484375	-94.27550506591771	852.899169921875	970.3338012695312	-54.50024032592752	895.4064331054688	919.1134643554688	-106.3008728027342	845.4507446289062	876.6409912109375	-58.37766265869121	933.5848999023438	832.7921142578125	-64.34336090087872	726.067626953125	1484.81640625	-476.1172485351559	683.645263671875	1322.222045898438	-574.1553344726559	738.3743286132812	1236.64208984375	-582.5958251953123	615.1587524414062	1250.730834960938	-594.8015136718748	665.426025390625	1141.453491210938	-609.6635742187498	618.447509765625	1138.860595703125	-548.3205566406248	756.5865478515625	959.3795776367189	-606.598449707031	790.8619995117188	896.2623901367189	-559.2196655273435	737.2174682617188	878.1148681640626	-617.4499511718748	810.9363403320312	815.6047363281251	-608.8536376953123	715.9339599609375	1077.669677734375	-142.3576507568357	586.0311889648438	1053.489501953125	-312.8144226074216	703.93994140625	1074.01171875	-485.8646240234373	655.0985107421875	937.904052734375	-131.5670013427732	630.9815063476562	662.470947265625	-154.9201202392577	689.7653198242188	666.1483154296875	-150.4877014160155	671.766357421875	566.2171630859375	-188.0279083251952	611.5231323242188	586.4542846679688	-177.1778564453124	541.2039794921875	360.5520324707032	-184.7935180664062	591.9716796875	331.3031311035157	-200.0682678222655	573.809814453125	249.8776245117188	-221.615249633789	512.1632690429688	266.6857910156251	-211.6578826904296	438.7439880371094	73.0509109497071	-305.9298400878906	589.016845703125	19.90079689025884	-211.6981506347656	654.6964111328125	29.36834526062018	-307.8445129394531	681.5089721679688	959.3475341796876	-496.1284179687498	869.6224365234375	708.5318603515626	-488.7987670898436	813.3548583984375	707.9886474609376	-508.0223388671873	834.077880859375	605.8398437500001	-481.0979003906249	893.6732788085938	630.6415405273439	-467.3695678710936	866.5165405273438	349.186492919922	-470.4407043457031	807.9580688476562	332.571502685547	-471.4335937499999	798.6162109375	247.0011749267579	-454.4133911132812	862.4961547851562	248.2573089599611	-448.7291259765624	749.74658203125	59.35181045532235	-378.7189025878906	921.1931762695312	31.44172096252451	-452.2902526855469	959.2708129882812	48.21467971801766	-361.1533813476562	
124	0.492	855.2216796875	1743.913940429688	-305.6159973144527	797.8838500976562	1690.798828125	-228.2367858886715	795.406982421875	1697.353149414062	-376.0991821289059	659.5851440429688	1525.464111328125	-304.7029418945309	589.1685791015625	1331.503295898438	-232.6852416992185	581.4971923828125	1334.822387695312	-376.207824707031	834.6053466796875	1360.986694335938	-315.7058105468747	743.35986328125	1475.620361328125	-138.1150360107418	720.9526977539062	1317.655395507812	-42.82331466674776	787.8106689453125	1235.513549804688	-47.3473815917966	668.659423828125	1231.428833007812	-20.47239494323703	724.5800170898438	1127.453125	-19.74193763732885	685.0531616210938	1120.598999023438	-94.15185546874974	859.9530639648438	970.1986694335938	-54.81892776489236	902.5711059570312	919.0630493164062	-106.7102279663084	852.649169921875	876.3359985351562	-58.71889114379864	941.18505859375	832.9342041015625	-64.91743469238263	731.6997680664062	1483.871337890625	-476.4556884765622	688.8829345703125	1321.411865234375	-574.3774414062497	743.240966796875	1235.546752929688	-582.4276123046873	620.2765502929688	1250.074584960938	-595.2113037109373	670.4122314453125	1140.618408203125	-609.6314697265623	623.4100952148438	1138.096923828125	-548.5340576171873	761.5309448242188	958.5200195312501	-607.0521240234373	796.0596923828125	895.5953369140626	-559.765441894531	742.1796875	877.3240356445314	-617.6981811523435	815.787109375	814.8410034179689	-609.3649902343748	721.2670288085938	1076.695190429688	-142.3701171874998	591.5595703125	1052.715454101562	-313.2237548828123	709.4241943359375	1073.148681640625	-486.098449707031	660.302734375	937.6351318359375	-132.0882568359373	634.1743774414062	662.734130859375	-154.8403015136717	692.8554077148438	665.866943359375	-150.656539916992	674.2568359375	566.18505859375	-188.0432586669921	614.3125610351562	586.9655151367188	-177.2201232910155	542.3773803710938	361.0550231933594	-184.9005889892577	593.1015014648438	331.5619812011719	-200.0535888671874	574.6475830078125	250.2452850341797	-221.6560974121093	513.0313110351562	267.3010559082032	-211.8645935058593	439.0947265625	73.86791229248054	-306.236328125	588.8780517578125	19.93453216552739	-211.8595886230469	654.7930297851562	29.31670570373542	-307.8348999023438	687.1467895507812	958.6834106445314	-496.5511474609373	875.1756591796875	707.8480834960939	-488.537139892578	818.8056030273438	707.0122680664064	-507.5557556152342	839.6915893554688	605.1883544921876	-480.505889892578	899.1499633789062	630.0608520507814	-466.805938720703	876.8466796875	348.8256225585939	-469.9579772949218	818.6473388671875	330.6693420410157	-470.9480285644531	812.1443481445312	244.2700500488282	-453.4785156249999	875.569580078125	247.7728424072267	-448.3127136230468	768.1463623046875	56.00546264648446	-378.5411682128906	939.9551391601562	31.71921157836924	-452.2967529296875	977.8353271484375	48.99336624145516	-361.4174499511719	
